<svg width="156" height="133" viewBox="0 0 156 133" fill="none" xmlns="http://www.w3.org/2000/svg">
<path d="M111.163 19.1934C110.131 17.544 108.902 16.5443 107.182 15.4947L83.5936 1.64944C79.8587 -0.549812 75.2392 -0.549812 71.5043 1.64944L47.8665 15.4947C45.999 16.5943 43.4927 18.5936 43.2961 21.1428C42.8539 27.1907 50.5202 30.9894 55.6311 33.7884C64.4769 38.5868 70.1775 41.3359 74.4529 45.8343C75.7389 47.2112 79.1918 47.1434 80.5467 45.8343C84.8713 41.3359 90.5719 38.5868 99.3685 33.7884C104.43 31.0394 111.851 27.5906 111.703 21.1928C111.703 20.6429 111.458 19.7432 111.163 19.1934ZM77.4998 35.9877C73.3718 35.9877 70.0301 32.5889 70.0301 28.3903C70.0301 24.1917 73.3718 20.7929 77.4998 20.7929C81.6278 20.7929 84.9696 24.1917 84.9696 28.3903C84.9696 32.5889 81.6278 35.9877 77.4998 35.9877Z" fill="url(#paint0_linear_48_2607)"/>
<path d="M99.4176 37.787C88.901 43.435 81.5787 46.0841 78.6792 55.281C78.3352 56.3806 77.8929 57.5302 77.4998 59.7795C77.1066 57.5302 76.6643 56.3806 76.3203 55.281C73.47 46.1341 66.0986 43.485 55.5819 37.787C44.7213 31.939 42.3624 28.99 41.9692 27.7404V53.8815C41.9692 58.23 44.279 62.3286 48.0139 64.5278L71.6026 78.3731C72.438 78.8729 73.2243 79.2728 74.0598 79.5227C73.7649 78.4731 73.4209 77.4234 73.0277 76.2238C65.6563 55.231 52.6333 50.0828 52.6333 50.0828C52.6333 50.0828 58.7271 50.5826 67.3763 59.6795C71.6026 64.078 74.8952 69.3762 77.4998 74.8743C77.4998 74.8743 83.2987 64.2279 87.6724 59.6295C96.3216 50.5326 102.415 50.0328 102.415 50.0328C102.415 50.0328 89.3924 55.181 82.021 76.1738C81.6278 77.3234 81.2838 78.4231 80.9889 79.4727C81.8244 79.2228 82.6107 78.8229 83.4461 78.3231L107.035 64.4778C110.77 62.2786 113.079 58.23 113.079 53.8315V27.6904C112.637 28.94 110.278 31.889 99.4176 37.787Z" fill="url(#paint1_linear_48_2607)"/>
<path d="M11.9114 111.732L11.0985 108.61H5.73554L4.90005 111.732H0L5.38554 95.0029H11.3356L16.7889 111.732H11.9114ZM10.1727 104.917L9.46139 102.182C9.2958 101.575 9.09257 100.788 8.8517 99.8234C8.61837 98.8585 8.46407 98.1672 8.3888 97.7493C8.32105 98.1368 8.18557 98.775 7.98234 99.6639C7.78664 100.553 7.34631 102.304 6.66136 104.917H10.1727Z" fill="white"/>
<path d="M24.1502 111.96C22.0578 111.96 20.4696 111.39 19.3857 110.251C18.3093 109.111 17.7712 107.474 17.7712 105.339C17.7712 103.197 18.3545 101.537 19.5212 100.359C20.6878 99.1814 22.3475 98.5926 24.5003 98.5926C25.9831 98.5926 27.3793 98.9193 28.689 99.5727L27.3906 102.866C26.8562 102.631 26.3632 102.445 25.9116 102.308C25.4599 102.163 24.9895 102.091 24.5003 102.091C23.7852 102.091 23.232 102.372 22.8406 102.935C22.4492 103.497 22.2535 104.291 22.2535 105.316C22.2535 107.383 23.0099 108.416 24.5228 108.416C25.8175 108.416 27.0594 108.036 28.2487 107.276V110.821C27.1121 111.58 25.746 111.96 24.1502 111.96Z" fill="white"/>
<path d="M39.1327 111.732L38.2859 110.023H38.1956C37.6009 110.767 36.995 111.276 36.3778 111.55C35.7606 111.824 34.9627 111.96 33.9842 111.96C32.7799 111.96 31.8315 111.596 31.139 110.866C30.4466 110.137 30.1003 109.111 30.1003 107.789C30.1003 106.414 30.5745 105.392 31.5229 104.724C32.4713 104.048 33.845 103.668 35.6439 103.584L37.7778 103.516V103.333C37.7778 102.27 37.2584 101.738 36.2197 101.738C35.2864 101.738 34.1009 102.057 32.6632 102.695L31.3874 99.755C32.8778 98.9801 34.7595 98.5926 37.0326 98.5926C38.6735 98.5926 39.9418 99.0029 40.8375 99.8234C41.7408 100.644 42.1924 101.791 42.1924 103.265V111.732H39.1327ZM35.8584 108.815C36.3928 108.815 36.8482 108.644 37.2246 108.302C37.6085 107.96 37.8004 107.516 37.8004 106.969V105.966L36.7843 106.011C35.3315 106.065 34.6052 106.604 34.6052 107.63C34.6052 108.42 35.0229 108.815 35.8584 108.815Z" fill="white"/>
<path d="M49.1699 111.96C48.2591 111.96 47.4612 111.698 46.7763 111.174C46.0989 110.65 45.572 109.879 45.1956 108.861C44.8268 107.842 44.6424 106.653 44.6424 105.294C44.6424 103.197 45.0601 101.556 45.8956 100.37C46.7311 99.1852 47.879 98.5926 49.3392 98.5926C50.0543 98.5926 50.679 98.737 51.2134 99.0257C51.7554 99.3144 52.2484 99.8006 52.6925 100.484H52.7828C52.6398 99.4739 52.5683 98.4635 52.5683 97.453V94H57.0167V111.732H53.686L52.7376 110.103H52.5683C51.8081 111.341 50.6753 111.96 49.1699 111.96ZM50.9763 108.439C51.6839 108.439 52.1806 108.215 52.4667 107.766C52.7602 107.318 52.9183 106.627 52.9409 105.692V105.339C52.9409 104.2 52.779 103.39 52.4554 102.912C52.1317 102.426 51.6237 102.182 50.9312 102.182C50.3516 102.182 49.9 102.46 49.5763 103.014C49.2602 103.561 49.1021 104.344 49.1021 105.362C49.1021 106.365 49.264 107.128 49.5876 107.653C49.9113 108.177 50.3742 108.439 50.9763 108.439Z" fill="white"/>
<path d="M66.2523 111.96C64.1222 111.96 62.4662 111.39 61.2845 110.251C60.1103 109.104 59.5232 107.474 59.5232 105.362C59.5232 103.181 60.0689 101.51 61.1603 100.348C62.2517 99.1776 63.8098 98.5926 65.8345 98.5926C67.7615 98.5926 69.248 99.1017 70.2943 100.12C71.3481 101.13 71.8749 102.589 71.8749 104.496V106.479H63.9829C64.013 107.2 64.2727 107.766 64.762 108.177C65.2587 108.587 65.9324 108.792 66.783 108.792C67.5582 108.792 68.2695 108.72 68.9168 108.576C69.5717 108.424 70.2792 108.169 71.0394 107.812V111.014C70.347 111.371 69.6319 111.618 68.8943 111.755C68.1566 111.892 67.276 111.96 66.2523 111.96ZM65.9926 101.624C65.4733 101.624 65.0367 101.791 64.6829 102.125C64.3367 102.452 64.1335 102.969 64.0732 103.675H67.8668C67.8518 103.052 67.6749 102.555 67.3362 102.182C67.005 101.81 66.5571 101.624 65.9926 101.624Z" fill="white"/>
<path d="M90.0751 111.732V104.712C90.0751 103.839 89.9547 103.185 89.7138 102.752C89.4805 102.312 89.1079 102.091 88.5961 102.091C87.9186 102.091 87.4219 102.384 87.1057 102.969C86.7896 103.554 86.6315 104.469 86.6315 105.715V111.732H82.2057V104.712C82.2057 103.839 82.0928 103.185 81.867 102.752C81.6412 102.312 81.2761 102.091 80.7718 102.091C80.0793 102.091 79.575 102.403 79.2589 103.026C78.9427 103.649 78.7847 104.667 78.7847 106.08V111.732H74.3701V98.8206H77.7008L78.254 100.416H78.5137C78.8524 99.8234 79.3417 99.3714 79.9815 99.0599C80.6288 98.7484 81.3627 98.5926 82.1831 98.5926C84.0272 98.5926 85.3218 99.1586 86.067 100.291H86.417C86.7783 99.7588 87.2789 99.3448 87.9186 99.0485C88.566 98.7446 89.2773 98.5926 90.0525 98.5926C91.5655 98.5926 92.6832 98.9839 93.4058 99.7664C94.1284 100.549 94.4897 101.738 94.4897 103.333V111.732H90.0751Z" fill="white"/>
<path d="M95.9462 98.8206H100.598L102.766 106.228C102.871 106.615 102.942 107.083 102.98 107.63H103.07C103.131 107.106 103.221 106.646 103.341 106.251L105.566 98.8206H110.07L105.012 112.553C104.365 114.3 103.567 115.535 102.619 116.257C101.678 116.978 100.447 117.339 98.9268 117.339C98.3397 117.339 97.7376 117.275 97.1204 117.145V113.647C97.5193 113.738 97.9747 113.784 98.4865 113.784C98.8779 113.784 99.2204 113.708 99.5139 113.556C99.8075 113.404 100.063 113.187 100.282 112.906C100.5 112.633 100.733 112.181 100.982 111.55L95.9462 98.8206Z" fill="white"/>
<path d="M125.9 95.0712V105.1C125.9 107.28 125.286 108.971 124.059 110.171C122.84 111.364 121.079 111.96 118.775 111.96C116.525 111.96 114.794 111.379 113.582 110.217C112.378 109.054 111.775 107.383 111.775 105.202V95.0712H116.258V104.849C116.258 106.027 116.476 106.881 116.912 107.413C117.349 107.945 117.993 108.211 118.843 108.211C119.754 108.211 120.413 107.949 120.819 107.425C121.233 106.893 121.44 106.027 121.44 104.826V95.0712H125.9Z" fill="white"/>
<path d="M137.45 111.732L136.603 110.023H136.513C135.918 110.767 135.312 111.276 134.695 111.55C134.078 111.824 133.28 111.96 132.301 111.96C131.097 111.96 130.149 111.596 129.456 110.866C128.764 110.137 128.417 109.111 128.417 107.789C128.417 106.414 128.892 105.392 129.84 104.724C130.788 104.048 132.162 103.668 133.961 103.584L136.095 103.516V103.333C136.095 102.27 135.576 101.738 134.537 101.738C133.604 101.738 132.418 102.057 130.98 102.695L129.705 99.755C131.195 98.9801 133.077 98.5926 135.35 98.5926C136.991 98.5926 138.259 99.0029 139.155 99.8234C140.058 100.644 140.51 101.791 140.51 103.265V111.732H137.45ZM134.176 108.815C134.71 108.815 135.165 108.644 135.542 108.302C135.926 107.96 136.118 107.516 136.118 106.969V105.966L135.101 106.011C133.649 106.065 132.922 106.604 132.922 107.63C132.922 108.42 133.34 108.815 134.176 108.815Z" fill="white"/>
<path d="M151.585 111.732V104.69C151.585 103.831 151.461 103.185 151.213 102.752C150.972 102.312 150.581 102.091 150.039 102.091C149.293 102.091 148.755 102.391 148.424 102.992C148.093 103.592 147.927 104.621 147.927 106.08V111.732H143.513V98.8206H146.843L147.397 100.416H147.656C148.033 99.8082 148.552 99.3524 149.214 99.0485C149.884 98.7446 150.652 98.5926 151.518 98.5926C152.933 98.5926 154.032 99.0067 154.814 99.8348C155.605 100.663 156 101.829 156 103.333V111.732H151.585Z" fill="white"/>
<path d="M13.4645 129.885V120.629H14.5308V129.885H13.4645Z" fill="white"/>
<path d="M21.5999 129.885V125.396C21.5999 124.831 21.4723 124.409 21.2172 124.13C20.9622 123.851 20.5628 123.712 20.0192 123.712C19.3 123.712 18.7731 123.908 18.4385 124.301C18.104 124.694 17.9367 125.341 17.9367 126.245V129.885H16.8955V122.946H17.7423L17.9117 123.896H17.9618C18.1751 123.554 18.4741 123.29 18.8588 123.104C19.2435 122.914 19.6721 122.819 20.1447 122.819C20.9726 122.819 21.5957 123.022 22.0138 123.427C22.432 123.828 22.6411 124.472 22.6411 125.358V129.885H21.5999Z" fill="white"/>
<path d="M27.0067 129.144C27.1907 129.144 27.3684 129.132 27.5399 129.106C27.7113 129.077 27.8472 129.047 27.9476 129.018V129.822C27.8347 129.877 27.6674 129.921 27.4458 129.955C27.2284 129.993 27.0318 130.012 26.8562 130.012C25.5264 130.012 24.8615 129.305 24.8615 127.891V123.763H23.8768V123.256L24.8615 122.819L25.3006 121.338H25.9028V122.946H27.8974V123.763H25.9028V127.846C25.9028 128.264 26.001 128.585 26.1976 128.809C26.3941 129.032 26.6638 129.144 27.0067 129.144Z" fill="white"/>
<path d="M32.2317 130.012C31.2156 130.012 30.4127 129.699 29.8231 129.075C29.2376 128.45 28.9449 127.583 28.9449 126.473C28.9449 125.354 29.2167 124.466 29.7603 123.807C30.3081 123.149 31.042 122.819 31.962 122.819C32.8234 122.819 33.505 123.106 34.0068 123.681C34.5086 124.25 34.7595 125.004 34.7595 125.941V126.606H30.0238C30.0447 127.42 30.2475 128.038 30.6322 128.461C31.0211 128.883 31.5668 129.094 32.2693 129.094C33.0095 129.094 33.7413 128.938 34.4647 128.625V129.562C34.0967 129.723 33.7475 129.837 33.4172 129.904C33.091 129.976 32.6959 130.012 32.2317 130.012ZM31.9494 123.7C31.3975 123.7 30.9563 123.881 30.6259 124.244C30.2998 124.607 30.1074 125.109 30.0489 125.751H33.643C33.643 125.088 33.4966 124.582 33.2039 124.231C32.9112 123.877 32.493 123.7 31.9494 123.7Z" fill="white"/>
<path d="M39.6771 122.819C39.9824 122.819 40.2563 122.845 40.4988 122.895L40.3545 123.87C40.0702 123.807 39.8193 123.775 39.6018 123.775C39.0457 123.775 38.569 124.003 38.1717 124.459C37.7786 124.915 37.5821 125.483 37.5821 126.162V129.885H36.5409V122.946H37.4002L37.5194 124.231H37.5696C37.8246 123.78 38.132 123.431 38.4916 123.187C38.8512 122.942 39.2464 122.819 39.6771 122.819Z" fill="white"/>
<path d="M46.489 129.885V125.396C46.489 124.831 46.3615 124.409 46.1064 124.13C45.8513 123.851 45.452 123.712 44.9083 123.712C44.1891 123.712 43.6622 123.908 43.3277 124.301C42.9932 124.694 42.8259 125.341 42.8259 126.245V129.885H41.7847V122.946H42.6314L42.8008 123.896H42.851C43.0642 123.554 43.3632 123.29 43.7479 123.104C44.1327 122.914 44.5613 122.819 45.0338 122.819C45.8618 122.819 46.4848 123.022 46.903 123.427C47.3212 123.828 47.5302 124.472 47.5302 125.358V129.885H46.489Z" fill="white"/>
<path d="M53.9031 129.885L53.6961 128.897H53.6459C53.303 129.332 52.9601 129.628 52.6172 129.784C52.2785 129.936 51.8541 130.012 51.3439 130.012C50.6623 130.012 50.127 129.834 49.7381 129.48C49.3534 129.125 49.1611 128.621 49.1611 127.967C49.1611 126.565 50.2713 125.831 52.4918 125.763L53.6584 125.725V125.295C53.6584 124.75 53.5414 124.35 53.3072 124.092C53.0772 123.83 52.7071 123.7 52.197 123.7C51.6241 123.7 50.9759 123.877 50.2525 124.231L49.9326 123.427C50.2713 123.242 50.6414 123.096 51.0428 122.99C51.4484 122.885 51.8541 122.832 52.2597 122.832C53.0793 122.832 53.6856 123.016 54.0787 123.383C54.476 123.75 54.6746 124.339 54.6746 125.149V129.885H53.9031ZM51.5509 129.144C52.199 129.144 52.7071 128.965 53.0751 128.606C53.4473 128.247 53.6334 127.745 53.6334 127.099V126.473L52.5921 126.517C51.7642 126.546 51.1662 126.677 50.7982 126.909C50.4344 127.137 50.2525 127.494 50.2525 127.979C50.2525 128.359 50.3654 128.648 50.5912 128.847C50.8212 129.045 51.1411 129.144 51.5509 129.144Z" fill="white"/>
<path d="M59.0465 129.144C59.2305 129.144 59.4082 129.132 59.5796 129.106C59.7511 129.077 59.887 129.047 59.9874 129.018V129.822C59.8745 129.877 59.7072 129.921 59.4856 129.955C59.2681 129.993 59.0716 130.012 58.896 130.012C57.5662 130.012 56.9013 129.305 56.9013 127.891V123.763H55.9165V123.256L56.9013 122.819L57.3404 121.338H57.9425V122.946H59.9372V123.763H57.9425V127.846C57.9425 128.264 58.0408 128.585 58.2373 128.809C58.4339 129.032 58.7036 129.144 59.0465 129.144Z" fill="white"/>
<path d="M62.4085 129.885H61.3673V122.946H62.4085V129.885ZM61.2795 121.066C61.2795 120.825 61.338 120.65 61.4551 120.54C61.5722 120.426 61.7186 120.369 61.8942 120.369C62.0615 120.369 62.2057 120.426 62.327 120.54C62.4483 120.654 62.5089 120.829 62.5089 121.066C62.5089 121.302 62.4483 121.479 62.327 121.598C62.2057 121.712 62.0615 121.769 61.8942 121.769C61.7186 121.769 61.5722 121.712 61.4551 121.598C61.338 121.479 61.2795 121.302 61.2795 121.066Z" fill="white"/>
<path d="M70.5502 126.409C70.5502 127.54 70.2679 128.425 69.7034 129.062C69.1389 129.695 68.359 130.012 67.3638 130.012C66.7491 130.012 66.2034 129.866 65.7267 129.575C65.25 129.284 64.882 128.866 64.6227 128.321C64.3634 127.777 64.2338 127.139 64.2338 126.409C64.2338 125.278 64.514 124.398 65.0743 123.769C65.6347 123.136 66.4125 122.819 67.4077 122.819C68.3695 122.819 69.1326 123.142 69.6971 123.788C70.2658 124.434 70.5502 125.308 70.5502 126.409ZM65.3127 126.409C65.3127 127.296 65.4883 127.971 65.8396 128.435C66.1908 128.9 66.7073 129.132 67.3889 129.132C68.0705 129.132 68.5869 128.902 68.9382 128.442C69.2936 127.977 69.4713 127.3 69.4713 126.409C69.4713 125.527 69.2936 124.858 68.9382 124.402C68.5869 123.942 68.0663 123.712 67.3763 123.712C66.6947 123.712 66.1804 123.938 65.8333 124.39C65.4862 124.841 65.3127 125.514 65.3127 126.409Z" fill="white"/>
<path d="M77.0861 129.885V125.396C77.0861 124.831 76.9586 124.409 76.7035 124.13C76.4484 123.851 76.0491 123.712 75.5054 123.712C74.7862 123.712 74.2593 123.908 73.9248 124.301C73.5902 124.694 73.423 125.341 73.423 126.245V129.885H72.3818V122.946H73.2285L73.3979 123.896H73.4481C73.6613 123.554 73.9603 123.29 74.345 123.104C74.7297 122.914 75.1584 122.819 75.6309 122.819C76.4589 122.819 77.0819 123.022 77.5001 123.427C77.9183 123.828 78.1273 124.472 78.1273 125.358V129.885H77.0861Z" fill="white"/>
<path d="M84.5002 129.885L84.2932 128.897H84.243C83.9001 129.332 83.5572 129.628 83.2143 129.784C82.8756 129.936 82.4511 130.012 81.941 130.012C81.2594 130.012 80.7241 129.834 80.3352 129.48C79.9505 129.125 79.7582 128.621 79.7582 127.967C79.7582 126.565 80.8684 125.831 83.0889 125.763L84.2555 125.725V125.295C84.2555 124.75 84.1384 124.35 83.9043 124.092C83.6743 123.83 83.3042 123.7 82.794 123.7C82.2212 123.7 81.573 123.877 80.8496 124.231L80.5297 123.427C80.8684 123.242 81.2385 123.096 81.6399 122.99C82.0455 122.885 82.4511 122.832 82.8568 122.832C83.6764 122.832 84.2827 123.016 84.6758 123.383C85.073 123.75 85.2717 124.339 85.2717 125.149V129.885H84.5002ZM82.148 129.144C82.7961 129.144 83.3042 128.965 83.6722 128.606C84.0444 128.247 84.2304 127.745 84.2304 127.099V126.473L83.1892 126.517C82.3612 126.546 81.7633 126.677 81.3953 126.909C81.0315 127.137 80.8496 127.494 80.8496 127.979C80.8496 128.359 80.9625 128.648 81.1883 128.847C81.4183 129.045 81.7382 129.144 82.148 129.144Z" fill="white"/>
<path d="M88.4644 129.885H87.4231V120.034H88.4644V129.885Z" fill="white"/>
<path d="M97.2082 130.012C96.7607 130.012 96.3509 129.929 95.9788 129.765C95.6108 129.596 95.3013 129.338 95.0504 128.992H94.9752C95.0254 129.398 95.0504 129.782 95.0504 130.145V133H94.0092V122.946H94.856L95.0003 123.896H95.0504C95.3181 123.516 95.6296 123.242 95.985 123.073C96.3405 122.904 96.7482 122.819 97.2082 122.819C98.1198 122.819 98.8223 123.134 99.3157 123.763C99.8133 124.392 100.062 125.274 100.062 126.409C100.062 127.549 99.8092 128.435 99.3032 129.068C98.8014 129.697 98.103 130.012 97.2082 130.012ZM97.0576 123.712C96.3551 123.712 95.847 123.908 95.5334 124.301C95.2198 124.694 95.0588 125.318 95.0504 126.175V126.409C95.0504 127.384 95.2114 128.083 95.5334 128.505C95.8554 128.923 96.3718 129.132 97.0827 129.132C97.6765 129.132 98.1407 128.889 98.4752 128.404C98.8139 127.918 98.9833 127.249 98.9833 126.397C98.9833 125.531 98.8139 124.869 98.4752 124.409C98.1407 123.944 97.6682 123.712 97.0576 123.712Z" fill="white"/>
<path d="M102.929 129.885H101.887V120.034H102.929V129.885Z" fill="white"/>
<path d="M109.364 129.885L109.157 128.897H109.107C108.764 129.332 108.421 129.628 108.078 129.784C107.74 129.936 107.315 130.012 106.805 130.012C106.123 130.012 105.588 129.834 105.199 129.48C104.815 129.125 104.622 128.621 104.622 127.967C104.622 126.565 105.732 125.831 107.953 125.763L109.12 125.725V125.295C109.12 124.75 109.003 124.35 108.768 124.092C108.538 123.83 108.168 123.7 107.658 123.7C107.085 123.7 106.437 123.877 105.714 124.231L105.394 123.427C105.732 123.242 106.103 123.096 106.504 122.99C106.91 122.885 107.315 122.832 107.721 122.832C108.54 122.832 109.147 123.016 109.54 123.383C109.937 123.75 110.136 124.339 110.136 125.149V129.885H109.364ZM107.012 129.144C107.66 129.144 108.168 128.965 108.536 128.606C108.908 128.247 109.094 127.745 109.094 127.099V126.473L108.053 126.517C107.225 126.546 106.627 126.677 106.259 126.909C105.896 127.137 105.714 127.494 105.714 127.979C105.714 128.359 105.827 128.648 106.052 128.847C106.282 129.045 106.602 129.144 107.012 129.144Z" fill="white"/>
<path d="M114.508 129.144C114.692 129.144 114.869 129.132 115.041 129.106C115.212 129.077 115.348 129.047 115.449 129.018V129.822C115.336 129.877 115.168 129.921 114.947 129.955C114.729 129.993 114.533 130.012 114.357 130.012C113.027 130.012 112.362 129.305 112.362 127.891V123.763H111.378V123.256L112.362 122.819L112.802 121.338H113.404V122.946H115.398V123.763H113.404V127.846C113.404 128.264 113.502 128.585 113.698 128.809C113.895 129.032 114.165 129.144 114.508 129.144Z" fill="white"/>
<path d="M119.927 123.763H118.177V129.885H117.136V123.763H115.906V123.288L117.136 122.908V122.522C117.136 120.817 117.874 119.964 119.35 119.964C119.714 119.964 120.14 120.038 120.63 120.186L120.36 121.028C119.958 120.897 119.616 120.831 119.331 120.831C118.938 120.831 118.647 120.964 118.459 121.23C118.271 121.492 118.177 121.914 118.177 122.497V122.946H119.927V123.763Z" fill="white"/>
<path d="M127.115 126.409C127.115 127.54 126.833 128.425 126.269 129.062C125.704 129.695 124.924 130.012 123.929 130.012C123.314 130.012 122.768 129.866 122.292 129.575C121.815 129.284 121.447 128.866 121.188 128.321C120.929 127.777 120.799 127.139 120.799 126.409C120.799 125.278 121.079 124.398 121.639 123.769C122.2 123.136 122.978 122.819 123.973 122.819C124.935 122.819 125.698 123.142 126.262 123.788C126.831 124.434 127.115 125.308 127.115 126.409ZM121.878 126.409C121.878 127.296 122.053 127.971 122.405 128.435C122.756 128.9 123.272 129.132 123.954 129.132C124.636 129.132 125.152 128.902 125.503 128.442C125.859 127.977 126.036 127.3 126.036 126.409C126.036 125.527 125.859 124.858 125.503 124.402C125.152 123.942 124.631 123.712 123.941 123.712C123.26 123.712 122.745 123.938 122.398 124.39C122.051 124.841 121.878 125.514 121.878 126.409Z" fill="white"/>
<path d="M132.083 122.819C132.388 122.819 132.662 122.845 132.905 122.895L132.761 123.87C132.476 123.807 132.225 123.775 132.008 123.775C131.452 123.775 130.975 124.003 130.578 124.459C130.185 124.915 129.988 125.483 129.988 126.162V129.885H128.947V122.946H129.806L129.925 124.231H129.976C130.231 123.78 130.538 123.431 130.898 123.187C131.257 122.942 131.652 122.819 132.083 122.819Z" fill="white"/>
<path d="M142.953 129.885V125.371C142.953 124.818 142.836 124.404 142.602 124.13C142.368 123.851 142.004 123.712 141.511 123.712C140.862 123.712 140.384 123.9 140.074 124.276C139.765 124.651 139.61 125.23 139.61 126.01V129.885H138.569V125.371C138.569 124.818 138.452 124.404 138.218 124.13C137.983 123.851 137.617 123.712 137.12 123.712C136.468 123.712 135.989 123.911 135.683 124.307C135.382 124.7 135.232 125.346 135.232 126.245V129.885H134.191V122.946H135.037L135.207 123.896H135.257C135.453 123.558 135.729 123.294 136.085 123.104C136.445 122.914 136.846 122.819 137.289 122.819C138.364 122.819 139.066 123.212 139.397 123.997H139.447C139.652 123.634 139.949 123.347 140.338 123.136C140.727 122.925 141.17 122.819 141.667 122.819C142.445 122.819 143.026 123.022 143.411 123.427C143.8 123.828 143.994 124.472 143.994 125.358V129.885H142.953Z" fill="white"/>
<defs>
<linearGradient id="paint0_linear_48_2607" x1="43.2778" y1="0" x2="116.211" y2="7.79838" gradientUnits="userSpaceOnUse">
<stop stop-color="#136FF0"/>
<stop offset="1" stop-color="#529AFF"/>
</linearGradient>
<linearGradient id="paint1_linear_48_2607" x1="85.821" y1="16.2498" x2="62.4132" y2="85.6173" gradientUnits="userSpaceOnUse">
<stop stop-color="#39B54A"/>
<stop offset="1" stop-color="#ACDF23"/>
</linearGradient>
</defs>
</svg>
